<svg width="84" height="84" viewBox="0 0 84 84" fill="none" xmlns="http://www.w3.org/2000/svg">
<g clip-path="url(#clip0_291_2703)">
<path d="M33.6001 10C29.0928 12.4 26.2245 16.1 24.6879 21.7C21.7172 32.3 30.8342 44 42.0001 44C50.0928 44 57.7757 37.4 59.8245 28.7C60.644 25.3 58.9025 18.4 56.1367 14.7C51.5269 8.4 40.9757 6.2 33.6001 10ZM49.7855 13.5C58.4928 19.1 58.4928 33 49.5806 38.6C45.9952 40.9 38.005 40.9 34.4196 38.6C30.2196 36 27.6586 31.1 27.6586 25.9C27.6586 14.5 40.2586 7.4 49.7855 13.5Z" fill="#A20707"/>
<path d="M43.8437 23.7C39.2339 28.2 38.9266 28.3 37.0827 26.7C35.0339 24.9 32.7803 24.4 32.7803 25.8C32.7803 26.2 34.3169 28 36.1608 29.8L39.5412 33L45.4827 27.1C48.8632 23.8 51.1169 20.7 50.8095 20.1C49.6827 18.3 48.8632 18.7 43.8437 23.7Z" fill="#A20707"/>
<path d="M6.35122 46L0 50V63C0 72.7 0.307317 76 1.33171 76C1.94634 76 7.06829 73.6 12.6 70.7L22.639 65.3L37.1854 68.2C45.1756 69.7 53.0634 71 54.6 71C57.7756 71 82.2585 55.2 83.3854 52.4C85.2293 47.8 82.0537 43 77.239 43C75.7024 43 70.6829 45.7 64.5366 50C54.2927 57.1 48.8634 59 49.8878 55.1C50.1951 54.1 49.3756 52.2 47.9415 50.7C45.8927 48.4 43.4341 47.7 29.5024 45C20.5902 43.4 13.2146 42 13.0098 42C12.8049 42 9.73171 43.8 6.35122 46ZM31.7561 48.8C44.4585 51.4 45.5854 51.8 45.8927 53.9C46.2 56 45.9951 56.2 43.639 55.6C42.2049 55.3 38.9268 54.7 36.3659 54.3C32.678 53.9 31.7561 54 31.7561 55.2C31.7561 56.3 34.2146 57.2 40.5659 58.4C54.0878 61.1 53.8829 61.1 65.9707 52.9C74.8829 47 77.3415 45.8 78.6732 46.7C82.4634 49 80.5171 51.4 68.1219 59.9L55.8293 68.3L40.9756 65.5C32.7805 64 25.5073 62.5 24.7902 62.2C24.0732 62 21 58.2 17.9268 53.9C12.3951 46 12.3951 46 15.161 46C16.6976 46.1 24.1756 47.3 31.7561 48.8ZM14.7512 55C17.3122 58.8 19.4634 62.3 19.4634 62.7C19.4634 63.2 15.7756 65.4 11.2683 67.7L3.07317 72V62.1C3.07317 52.4 3.17561 52.1 5.94146 50.1C7.47805 49 9.01463 48 9.32195 48C9.62927 48 12.0878 51.1 14.7512 55Z" fill="#A20707"/>
<path d="M72.7319 64.1C67.4051 67.9 65.049 71 67.61 71C69.249 71 81.9515 62 81.9515 60.9C81.9515 58.9 78.0588 60.3 72.7319 64.1Z" fill="#A20707"/>
<path d="M62.1806 71.6C61.361 72.4 62.283 74 63.6147 74C64.1269 74 64.5367 73.3 64.5367 72.5C64.5367 71 63.3074 70.5 62.1806 71.6Z" fill="#A20707"/>
</g>
<defs>
<clipPath id="clip0_291_2703">
<rect width="84" height="84" fill="white"/>
</clipPath>
</defs>
</svg>
