<svg width="84" height="84" viewBox="0 0 84 84" fill="none" xmlns="http://www.w3.org/2000/svg">
<path d="M37.9022 10.5V18H34.829C31.7559 18 31.7559 18 31.7559 24C31.7559 29.2 32.1656 30.4 34.7266 33.2C37.1851 35.9 38.4144 36.5 41.9998 36.5C45.5851 36.5 46.8144 35.9 49.2729 33.2C51.8339 30.4 52.2437 29.2 52.2437 24C52.2437 18 52.2437 18 49.1705 18H46.0973V10.5V3H41.9998H37.9022V10.5ZM44.0485 11.5C44.0485 17.3 43.8437 18 41.9998 18C40.1559 18 39.951 17.3 39.951 11.5C39.951 5.7 40.1559 5 41.9998 5C43.8437 5 44.0485 5.7 44.0485 11.5ZM49.1705 26.1C48.4534 31.8 46.4046 34 41.9998 34C37.5949 34 35.5461 31.8 34.829 26.1L34.2144 21H41.9998H49.7851L49.1705 26.1Z" fill="#A20707"/>
<path d="M21.2048 39.6C19.7707 41 20.4878 49 22.0243 49.6C23.2536 50.1 23.5609 52.8 23.5609 65.6V81H42H60.439V65.6C60.439 52.6 60.6439 50.1 62.078 49.6C63.2048 49.2 63.5121 47.8 63.3073 44.3L63 39.5L42.4097 39.2C31.1414 39.1 21.6146 39.3 21.2048 39.6ZM51.5268 42.7C44.0487 43 42 43.4 42 44.5C42 45.7 43.8439 46 51.2195 46C56.6487 46 60.439 46.4 60.439 47C60.439 47.6 53.5756 48 42 48H23.5609V45V42L42.3073 42.2C52.5512 42.3 56.6487 42.6 51.5268 42.7ZM32.7804 54C32.7804 57.8 32.5756 58 29.7073 58C26.839 58 26.6341 57.8 26.6341 54C26.6341 50.2 26.839 50 29.7073 50C32.5756 50 32.7804 50.2 32.7804 54ZM49.1707 54V58H42H34.8292V54V50H42H49.1707V54ZM57.3658 54C57.3658 57.8 57.1609 58 54.2926 58C51.4243 58 51.2195 57.8 51.2195 54C51.2195 50.2 51.4243 50 54.2926 50C57.1609 50 57.3658 50.2 57.3658 54ZM40.9756 64.5V68H33.8048H26.6341V64.5V61H33.8048H40.9756V64.5ZM57.2634 64.7C57.1609 67.7 57.0585 68 56.5463 66.2C55.6243 63.3 53.8829 63.2 53.4731 66C53.1658 67.7 52.3463 68 48.0439 68H43.0243V64.5V61H50.1951H57.3658L57.2634 64.7ZM32.7804 75C32.7804 78.8 32.5756 79 29.7073 79C26.839 79 26.6341 78.8 26.6341 75C26.6341 71.2 26.839 71 29.7073 71C32.5756 71 32.7804 71.2 32.7804 75ZM49.1707 75V79H42H34.8292V75V71H42H49.1707V75ZM53.2682 75C53.2682 77.2 52.8585 79 52.2439 79C51.7317 79 51.2195 77.2 51.2195 75C51.2195 72.8 51.7317 71 52.2439 71C52.8585 71 53.2682 72.8 53.2682 75ZM57.0585 77.2C56.8536 78.5 56.6487 77.5 56.6487 75C56.6487 72.5 56.8536 71.5 57.0585 72.7C57.2634 74 57.2634 76 57.0585 77.2Z" fill="#A20707"/>
<path d="M37.3902 43.8999C37.0829 44.3999 37.2878 45.0999 37.9024 45.4999C39.1317 46.1999 40.9756 45.2999 40.9756 43.8999C40.9756 42.6999 38.2097 42.6999 37.3902 43.8999Z" fill="#A20707"/>
</svg>
