<svg width="78" height="76" viewBox="0 0 78 76" fill="none" xmlns="http://www.w3.org/2000/svg">
<path d="M40.9417 1.90008C30.493 5.50008 26.4978 10.4001 26.4978 20.0001V25.6001L20.5564 26.8001C-2.4924 31.4001 -7.61435 61.0001 12.6686 72.5001C18.5076 75.9001 27.2149 76.8001 33.4637 74.7001C37.2539 73.4001 38.4832 73.4001 42.5808 74.6001C55.3857 78.4001 71.571 73.8001 76.1808 65.0001C78.4344 60.7001 78.4344 15.3001 76.1808 11.0001C71.2637 1.80008 54.3613 -2.59992 40.9417 1.90008ZM62.6588 4.10007C64.81 4.70008 68.3954 6.70008 70.6491 8.70008C73.9271 11.6001 74.6442 12.9001 74.6442 16.0001C74.6442 20.6001 71.8783 24.3001 66.1418 27.3001C59.893 30.5001 44.3222 30.5001 38.0735 27.3001C28.6491 22.3001 26.8052 15.2001 33.4637 9.00008C35.7174 7.00008 38.9954 4.90008 40.9417 4.30008C45.5515 2.90008 57.7417 2.70008 62.6588 4.10007ZM32.132 26.2001C32.7466 26.6001 32.3369 27.0001 31.4149 27.0001C30.3905 27.0001 29.571 26.3001 29.571 25.3001C29.571 24.4001 29.8783 24.1001 30.3905 24.6001C30.8003 25.1001 31.6198 25.8001 32.132 26.2001ZM74.6442 27.1001C74.132 28.9001 72.9027 31.1001 71.9808 32.1001C69.01 35.3001 61.8393 38.0001 55.0783 38.6001L48.5222 39.2001L44.4247 34.9001C41.6588 32.1001 40.9417 30.9001 42.3759 31.4001C50.571 34.3001 62.8637 32.6001 70.2393 27.5001C73.0052 25.7001 75.2588 24.2001 75.3613 24.1001C75.4637 24.0001 75.1564 25.4001 74.6442 27.1001ZM34.693 31.1001C40.8393 33.8001 42.7856 35.6001 45.5515 41.5001C53.0296 56.9001 42.5808 72.9001 25.1661 73.0001C12.3613 73.0001 2.93687 63.8001 2.93687 51.3001C3.03931 41.7001 7.95638 34.1001 16.7661 30.4001C21.3759 28.4001 29.3661 28.7001 34.693 31.1001ZM74.8491 35.5001C74.3369 38.3001 70.3418 42.5001 66.3466 44.6001C63.0686 46.2001 51.9027 48.1001 50.9808 47.2001C50.571 46.8001 50.0588 45.3001 49.6491 43.7001L49.0344 41.0001H54.8735C61.1222 41.0001 69.7271 37.9001 72.493 34.7001C74.4393 32.3001 75.4637 32.6001 74.8491 35.5001ZM72.9027 47.9001C69.8296 51.9001 62.9661 55.1001 56.3076 55.7001L50.3661 56.2001L50.8783 53.1001C51.2881 50.4001 51.6978 50.0001 54.5661 50.0001C59.4832 50.0001 67.5759 47.3001 71.0588 44.6001C73.6198 42.6001 74.2344 42.4001 74.4393 43.7001C74.6442 44.6001 73.9271 46.4001 72.9027 47.9001ZM74.6442 53.1001C73.4149 57.3001 71.2637 59.5001 65.732 62.0001C59.893 64.7001 46.371 66.1001 47.3954 63.9001C47.7027 63.1001 48.3174 61.7001 48.6247 60.7001C49.0344 59.6001 50.3661 59.0001 52.21 59.0001C58.0491 59.0001 65.6296 56.7001 70.3418 53.5001C73.0052 51.7001 75.2588 50.2001 75.3613 50.1001C75.4637 50.0001 75.1564 51.4001 74.6442 53.1001ZM74.8491 61.5001C74.2344 64.9001 67.4735 70.6001 62.6588 71.9001C58.3564 73.1001 45.4491 73.3001 42.5808 72.1001C40.8393 71.5001 40.9417 71.3001 43.093 69.3001C45.0393 67.6001 47.0881 67.1001 54.1564 66.8001C62.9661 66.3001 69.5222 64.1001 72.493 60.6001C74.4393 58.3001 75.4637 58.6001 74.8491 61.5001Z" fill="#A20707"/>
<path d="M43.4001 7.3C37.7659 9.5 36.0245 10.9 34.6928 14C33.5659 16.8 33.5659 17.4 35.4098 19.8C39.2001 24.7 43.605 26.5 52.1074 26.5C57.9464 26.5 60.8147 25.9 63.9903 24.3C72.083 20.1 72.2879 13.1 64.5025 8.6C60.3025 6.2 47.9074 5.4 43.4001 7.3ZM64.0928 11.6C66.0391 13.1 66.9611 14.6 66.9611 16.6C66.9611 25.6 39.5074 26.5 37.1513 17.6C35.7172 12.1 41.9659 8.9 53.3367 9.2C59.3806 9.4 61.8391 10 64.0928 11.6Z" fill="#A20707"/>
<path d="M20.6585 32.9C12.8732 34.8 6.00977 43.2 6.00977 51C6.00977 58.2 11.2342 65.5 18.5073 68.5C32.5415 74.1 47.7024 61 43.8098 46.7C41.0439 36.6 30.8 30.5 20.6585 32.9ZM34.4878 37.7C39.7122 41.5 41.3512 44.7 41.3512 51C41.3512 57.6 39.5073 60.9 33.6683 64.7C26.7024 69.4 15.639 66.6 11.2342 59C6.41952 50.6 10.2098 39.8 19.3268 36.1C23.1171 34.5 31.3122 35.4 34.4878 37.7Z" fill="#A20707"/>
<path d="M20.0442 40.7C19.6344 41 19.3271 43.1 19.3271 45.2C19.3271 47.9 18.9173 49 17.7905 49C15.7417 49 15.8442 50.7 18.0978 51.9C19.7368 52.9 19.7368 52.9 18.0978 53C17.0734 53 16.2539 53.4 16.2539 54C16.2539 54.5 16.971 55 17.7905 55C18.8149 55 19.3271 56.1 19.3271 58.5C19.3271 60.9 19.8393 62 20.8637 62C21.8881 62 22.4002 60.9 22.4002 58.5C22.4002 55 22.4002 55 27.1124 55C32.9515 55 32.132 53 26.1905 52.9L21.8881 52.8L27.01 51.9C38.1759 50.1 37.049 40 25.6783 40C22.9124 40 20.3515 40.3 20.0442 40.7ZM31.1076 46C31.1076 48.2 30.5954 48.5 26.8051 48.8C22.5027 49.1 22.4002 49 22.4002 46C22.4002 43 22.5027 42.9 26.8051 43.2C30.5954 43.5 31.1076 43.8 31.1076 46Z" fill="#A20707"/>
</svg>
