<svg width="60" height="60" viewBox="0 0 60 60" fill="none" xmlns="http://www.w3.org/2000/svg">
<rect width="60" height="60" rx="30" fill="#B80000"/>
<path d="M29.0781 44.1641C20.5234 31.8594 19 30.5703 19 26C19 19.7891 23.9805 14.75 30.25 14.75C36.4609 14.75 41.5 19.7891 41.5 26C41.5 30.5703 39.918 31.8594 31.3633 44.1641C30.8359 44.9844 29.6055 44.9844 29.0781 44.1641ZM30.25 30.6875C32.8281 30.6875 34.9375 28.6367 34.9375 26C34.9375 23.4219 32.8281 21.3125 30.25 21.3125C27.6133 21.3125 25.5625 23.4219 25.5625 26C25.5625 28.6367 27.6133 30.6875 30.25 30.6875Z" fill="white"/>
</svg>
