<svg width="20" height="20" viewBox="0 0 20 20" fill="none" xmlns="http://www.w3.org/2000/svg">
<path d="M7.60889 9.46222C8.24889 10.72 9.28 11.7511 10.5378 12.3911L11.5156 11.4133C11.64 11.2889 11.8133 11.2533 11.9689 11.3022C12.4667 11.4667 13 11.5556 13.5556 11.5556C13.6734 11.5556 13.7865 11.6024 13.8698 11.6857C13.9532 11.7691 14 11.8821 14 12V13.5556C14 13.6734 13.9532 13.7865 13.8698 13.8698C13.7865 13.9532 13.6734 14 13.5556 14C11.5517 14 9.62991 13.204 8.21297 11.787C6.79603 10.3701 6 8.4483 6 6.44444C6 6.32657 6.04683 6.21352 6.13017 6.13017C6.21352 6.04683 6.32657 6 6.44444 6H8C8.11787 6 8.23092 6.04683 8.31427 6.13017C8.39762 6.21352 8.44444 6.32657 8.44444 6.44444C8.44444 7 8.53333 7.53333 8.69778 8.03111C8.74667 8.18667 8.71111 8.36 8.58667 8.48444L7.60889 9.46222Z" fill="#9D0301"/>
<circle cx="10" cy="10" r="9.5" stroke="#9D0301"/>
</svg>
