<svg width="17" height="22" viewBox="0 0 17 22" fill="none" xmlns="http://www.w3.org/2000/svg">
<path d="M1.47794 5.86607C2.5545 3.022 5.30049 1 8.52039 1C12.677 1 16.0465 4.37056 16.0465 8.52679C16.0465 11.8636 11.1949 18.2478 9.28213 20.6348C9.19053 20.7488 9.07453 20.8408 8.94267 20.904C8.8108 20.9672 8.66644 21 8.52022 21C8.37399 21 8.22963 20.9672 8.09777 20.904C7.96591 20.8408 7.8499 20.7488 7.7583 20.6348C5.88428 18.2964 1.18976 12.1215 1 8.73374" stroke="#9D0301" stroke-miterlimit="10" stroke-linecap="round"/>
<path d="M5.06836 8.52095C5.0744 7.61182 5.43999 6.74202 6.08526 6.10156" stroke="#9D0301" stroke-miterlimit="10" stroke-linecap="round"/>
<path d="M7.25831 5.34075C7.88473 5.09458 8.56944 5.0369 9.22821 5.17479C9.88698 5.31269 10.4911 5.64015 10.9662 6.11689C11.4413 6.59363 11.7666 7.19885 11.9022 7.8581C12.0379 8.51734 11.9778 9.20185 11.7295 9.82741C11.4811 10.453 11.0554 10.9923 10.5045 11.379C9.95367 11.7658 9.30179 11.983 8.62907 12.0041C7.95635 12.0252 7.29214 11.8492 6.71816 11.4977C6.14417 11.1462 5.68546 10.6346 5.39844 10.0258" stroke="#9D0301" stroke-miterlimit="10" stroke-linecap="round"/>
</svg>
