<svg width="60" height="60" viewBox="0 0 60 60" fill="none" xmlns="http://www.w3.org/2000/svg">
<rect width="60" height="60" rx="30" fill="#B80000"/>
<path d="M44.1211 35.9609L37.5586 33.1484C37.3828 33.0898 37.207 33.0312 36.9727 33.0312C36.5625 33.0312 36.1523 33.2656 35.918 33.5586L32.9883 37.1328C28.418 34.9648 24.7852 31.332 22.6172 26.7617L26.1914 23.832C26.4844 23.5977 26.7188 23.1875 26.7188 22.7188C26.7188 22.543 26.6602 22.3672 26.6016 22.1914L23.7891 15.6289C23.5547 15.1016 23.0273 14.75 22.4414 14.75C22.3828 14.75 22.2656 14.8086 22.1484 14.8086L16.0547 16.2148C15.4102 16.3906 15 16.918 15 17.5625C15 32.6211 27.1289 44.75 42.1875 44.75C42.832 44.75 43.3594 44.3398 43.5352 43.6953L44.9414 37.6016C44.9414 37.4844 44.9414 37.3672 44.9414 37.3086C44.9414 36.7227 44.5898 36.1953 44.1211 35.9609Z" fill="#F9F7F2"/>
</svg>
