<svg width="60" height="60" viewBox="0 0 60 60" fill="none" xmlns="http://www.w3.org/2000/svg">
<rect width="60" height="60" rx="30" fill="#B80000"/>
<path d="M36.2278 35.5977C37.1448 35.9033 38.1358 35.4078 38.4414 34.4909C38.7471 33.574 38.2515 32.5829 37.3346 32.2773L36.2278 35.5977ZM30.875 31.9687H29.125C29.125 32.722 29.607 33.3907 30.3216 33.6289L30.875 31.9687ZM32.625 23.7365C32.625 22.77 31.8415 21.9865 30.875 21.9865C29.9085 21.9865 29.125 22.77 29.125 23.7365H32.625ZM37.3346 32.2773L31.4284 30.3086L30.3216 33.6289L36.2278 35.5977L37.3346 32.2773ZM32.625 31.9687V23.7365H29.125V31.9687H32.625ZM44.875 30C44.875 37.732 38.607 44 30.875 44V47.5C40.54 47.5 48.375 39.665 48.375 30H44.875ZM30.875 44C23.143 44 16.875 37.732 16.875 30H13.375C13.375 39.665 21.21 47.5 30.875 47.5V44ZM16.875 30C16.875 22.268 23.143 16 30.875 16V12.5C21.21 12.5 13.375 20.335 13.375 30H16.875ZM30.875 16C38.607 16 44.875 22.268 44.875 30H48.375C48.375 20.335 40.54 12.5 30.875 12.5V16Z" fill="white"/>
</svg>
